<svg xmlns="http://www.w3.org/2000/svg" width="335" height="31" viewBox="0 0 335 31"><path fill="#FFF" d="M12.56 2.86c-.09 0-4.55.04-10.8-1.25v18.02c0 .28.01.49.01.49v.02c.04.84.29 1.5.79 2.07.33.35.78.72 1.42 1.08.18.1.36.19.57.29.15.07.32.14.49.21.14.06.57.25.71.3l6.81 2.58 6.81-2.58c.15-.05.58-.25.71-.3.17-.07.33-.14.49-.21.2-.1.39-.19.57-.29.64-.36 1.09-.72 1.42-1.08.5-.57.75-1.23.79-2.07v-.02s0-.2.01-.49V1.61c-6.25 1.29-10.71 1.25-10.8 1.25z"/><path fill="#007360" d="M12.56 3.93c-.09 0-4.16.04-9.87-1.14V19.26c0 .26.01.44.01.45v.02c.04.76.26 1.37.72 1.89.3.32.72.66 1.3.98.16.09.33.18.52.27.14.07.29.13.45.2.12.05.52.23.65.28l6.23 2.36 6.23-2.36c.13-.05.53-.23.65-.28.16-.06.31-.13.45-.2.19-.09.36-.18.52-.27.58-.32 1-.66 1.3-.98.45-.52.68-1.13.72-1.89v-.02s0-.19.01-.45V2.79c-5.73 1.18-9.81 1.14-9.89 1.14z"/><path fill="#E1C4AC" d="M12.56 4.91c-.08 0-3.8.04-9.03-1.05v4.21c5.22 1.08 8.95 1.05 9.03 1.05.08 0 3.8.04 9.03-1.05V3.86c-5.23 1.08-8.95 1.05-9.03 1.05z"/><path fill="#A51417" d="M12.56 9.12c-.08 0-3.8.04-9.03-1.05v9.35c5.22 1.08 8.95 1.05 9.03 1.05.08 0 3.8.04 9.03-1.05V8.08c-5.23 1.08-8.95 1.04-9.03 1.04z"/><path fill="#E1C4AC" d="M3.54 19.34v.01c.03.7.24 1.26.66 1.73.27.29.66.6 1.19.9.15.08.3.16.47.24.13.06.27.12.41.18.11.05.48.21.6.25l5.69 2.16 5.69-2.16c.12-.04.48-.21.6-.25.14-.06.28-.12.41-.18.17-.08.33-.16.47-.24.53-.3.91-.6 1.19-.9.42-.48.62-1.03.66-1.73v-.02s0-.17.01-.41v-1.49c-5.22 1.08-8.95 1.05-9.03 1.05-.08 0-3.8.04-9.03-1.05v1.5c0 .24.01.41.01.41z"/><path fill-rule="evenodd" clip-rule="evenodd" fill="#007360" d="M6.72 4.85l.42 1.27 1.33.01-1.07.79.4 1.28-1.08-.78-1.09.78.4-1.28-1.07-.79 1.33-.01zM18.4 4.85l.43 1.27 1.33.01-1.07.79.4 1.28-1.09-.78-1.08.78.4-1.28-1.07-.79 1.33-.01zM12.56 5.34l.43 1.27 1.33.01-1.07.79.4 1.28-1.09-.78-1.09.78.4-1.28-1.07-.79 1.34-.01z"/><g fill="#007360"><path d="M12.56 18.81l-.47.47v1.26l.24.67v1.13h.46v-1.13l.24-.67v-1.26zM12.79 23.36v-.67h-.46v.67l-.24.44.47.58.47-.58zM13.13 22.69v.52l.3.32.53-.42v-.42zM13.69 20.59l-.56.62v1.13h.45v-.67l.44-.48.57.37.36-.37v-.6zM11.99 22.69v.52l-.3.32-.53-.42v-.42zM11.43 20.59l.56.62v1.13h-.45v-.67l-.44-.48-.57.37-.36-.37v-.6z"/></g><path fill="#E1C4AC" d="M16.86 10.61v5.36h-3.6l-.26.22-.44.38-.44-.38-.26-.22h-3.6v-5.36l-.77.56v5.56h4.25l.38.32.44.39.44-.39.38-.32h4.25v-5.56z"/><path fill="#E1C4AC" d="M13.14 10.16l-.14.11-.44.39-.44-.39-.14-.11H9.02v5.05h2.97l.21.18.36.32.37-.32.2-.18h2.97v-5.05z"/><g fill="#E1C4AC"><path d="M18.4 11.73v3.42c.98-.14 2.04-.32 3.18-.56v-3.42c-1.13.23-2.2.42-3.18.56zM6.72 11.73c-.98-.14-2.04-.32-3.18-.56v3.42c1.14.24 2.21.42 3.18.56v-3.42z"/></g><g fill="#007360"><path d="M18.4 18.35l-.32.33v.89l.16.47v.79h.32v-.79l.17-.47v-.89zM18.56 21.54v-.47h-.32v.47l-.16.31.32.41.33-.41zM18.8 21.07v.36l.21.23.37-.29v-.3zM19.19 19.6l-.39.44v.79h.32v-.47l.31-.34.39.26.25-.26v-.42zM18.01 21.07v.36l-.22.23-.36-.29v-.3zM17.61 19.6l.4.44v.79h-.32v-.47l-.31-.34-.4.26-.25-.26v-.42z"/></g><g fill="#007360"><path d="M6.72 18.35l-.33.33v.89l.17.47v.79h.32v-.79l.16-.47v-.89zM6.88 21.54v-.47h-.32v.47l-.17.31.33.41.32-.41zM7.11 21.07v.36l.22.23.36-.29v-.3zM7.51 19.6l-.4.44v.79h.32v-.47l.31-.34.4.26.25-.26v-.42zM6.32 21.07v.36l-.21.23-.37-.29v-.3zM5.93 19.6l.39.44v.79H6v-.47l-.31-.34-.39.26-.25-.26v-.42z"/></g><g fill="#FFF"><path d="M241.82 9.47c.34 0 1.1-1.24 1.1-1.62 0-.37-.76-1.65-1.1-1.65-.31 0-1.1 1.3-1.1 1.65 0 .35.78 1.62 1.1 1.62zM256.09 21.89v-5.25c0-2.42-.78-5.95-4.36-5.95-2.59 0-3.93 2.46-3.88 2.08v-1.83c0-.32-.16-.51-.32-.51-.62 0-1.07 1.04-3.16 1.67-.13.03-.52.04-.53.28 0 .67 2.1-.87 2.06 1.74v7.89c0 1.48-.72 1.6-1.25 1.74-.03 0-.06-.01-.1 0-.54-.03-1.68-.24-1.68-1.39V10.94c0-.32-.16-.51-.32-.51-.62 0-1.01 1.12-2.72 1.69-.13.03-.38.06-.38.25 0 .67 1.54-.63 1.47 1.75v7.51c.06 1.92-.99 2.11-1.57 2.11-.87-.01-.65.1-.65.37.03.32.55.34 1.41.35.3 0 1.03-.11 1.88-.11 1.1 0 1.93.12 2.49.12.32 0 1.19-.13 2.61-.13 1.55 0 2.09.13 2.54.13.4 0 .86-.18.59-.45-.43-.42-2.35.06-2.35-2.13v-7.32c-.03-.51.91-2.48 3.16-2.48 2.17 0 3.13 2.39 3.13 3.98v5.95c-.03 2.34-.83 1.6-1.15 2.07-.18.26.13.38.48.38s.91-.13 1.93-.13c1.31 0 1.88.12 2.23.12.27 0 .75-.21.46-.45-.71-.53-2.04.29-2.02-2.12zM52.27 3.52c.38-.05.57-.2.57-.2 0-.25-.05-.31-.4-.31-.67 0-1.08.11-1.75.11-.73 0-1.29-.08-1.91-.08-.35 0-.32.11-.32.31 0 .22.67.08 1.05.92.22.45.13 1.4-.08 1.96l-5.17 14.19-2.21-6.3-.86-2.3s-.13.06.48-1.85l1.21-3.64c.59-1.79 1.18-2.73 1.94-2.74.95-.02.95-.59.22-.59s-1.17.06-1.81.06c-.67 0-1.02-.06-1.75-.06-.27 0-.57.08-.54.31.03.22.43.14.73.31.49.25.81 1.29.46 2.38l-1.43 4.56-1.62-4.25c-.32-.81-.75-2.6.03-2.76.75-.15.65-.54.19-.54-.89 0-1.36.11-2.22.11-.94 0-1.64-.11-2.53-.11-.19 0-.54.03-.43.39.05.22.51.14.78.31 1.08.7 1.29 1.6 1.67 2.6L38.94 13c.43 1.2.46.76.11 1.79l-2.07 5.68-5.1-14.57c-.4-1.09-.62-1.85.27-2.27.38-.2.49-.23.54-.31.05-.07.1-.33-.46-.31-.92.03-1.48.11-2.4.11-.97 0-1.64-.11-2.53-.11-.3 0-.35.14-.35.36 0 .34.73.11 1.35.84.35.39 1.02 1.71 1.18 2.19l6.15 17.67c.11.26.14.78.5.78.28 0 .34-.59.43-.82l3.23-8.87 3.15 8.43c.13.34.32 1.26.65 1.26.27 0 .37-.44.51-.86l6.09-17.42c.52-1.4 1.11-2.88 2.08-3.05zM119.86 10.45c-3.37 0-5.96 3.39-5.96 7.36 0 2.02.54 3.62 1.47 4.78-.32.22-.95.72-2.22.72-1.1 0-1.74-.66-1.8-2.07V12.6l3.49-.01c.23 0 .67-1.49.69-1.57.04-.19.1-.34.12-.47.04-.29-.18-.31-.38-.01-.16.15-.33.57-1.02.57h-2.9c0-2.49.03-3.62-.36-3.62-.37 0-.31.1-.65 1.21-.45 1.49-1.85 2.3-2.72 2.77-.39.09-.84.12-1.33.01-.76-.17-1.65-1.09-3.95-1.09-2.46 0-4.61 2.01-4.61 4.7 0 1.45.64 2.85 1.77 3.59-.21.12-1.58 1.28-1.41 2.64 0 0-.03 1.41 1.08 1.88-.34.14-.69.37-.99.65-.72-.27-1.78-.06-1.78-1.97v-5.25c0-2.42-.78-5.95-4.36-5.95-2.59 0-3.93 2.46-3.88 2.08v-1.82c0-.32-.16-.51-.32-.51-.62 0-.75 1.02-3 1.6-.13.03-.44.1-.45.35 0 .67 1.81-.73 1.82 1.74v7.89c0 1.7-1.35 1.7-1.59 1.72-.1 0-.2 0-.32.01-.57-.05-1.56-.31-1.56-1.38V10.94c0-.32-.16-.51-.32-.51-.62 0-1.01 1.12-2.72 1.69-.13.03-.38.06-.38.25 0 .67 1.54-.63 1.47 1.75v7.51c.06 1.84-.89 2.08-1.48 2.1-.71-.09-1.26-.38-1.26-1.46v-5.31c0-2.74-1.04-6.27-4.47-6.27-1.52 0-2.84.84-3.85 1.98V3.53c0-.32-.16-.5-.32-.51-.41-.03-1.1 1.23-3.06 1.68-.13.03-.64.07-.64.26 0 .67 2.03-.32 2.06 1.75v15.6c0 1.56-1.34 1.35-1.58 1.85-.04.22.08.32.27.32.43 0 1.6-.12 2.43-.12.83 0 2.17.12 2.73.12.32 0 .45-.06.45-.45-.28-.54-2.35.29-2.35-2.45v-6.71c0-1.62 1.93-2.87 3.13-2.87.94 0 3.24.73 3.24 4.68v5.82c0 1.15-1.22 1.27-1.31 1.62 0 .25.16.35.43.35.29 0 1.15-.12 2.19-.12.58 0 1.11.03 1.55.06.24.05.59.05 1.02.05.29 0 1.03-.11 1.88-.11.85 0 1.53.07 2.06.11.1.01.21.01.31.01.04 0 .08.01.12.01h.01c.33.01.63 0 .76 0 .32 0 .86-.13 2.27-.13 1.55 0 2.09.13 2.54.13.4 0 .86-.18.59-.45-.43-.42-2.35.06-2.35-2.13v-7.32c-.03-.51.91-2.48 3.16-2.48 2.17 0 3.13 2.39 3.13 3.98v5.95c0 2.07-.83 1.6-1.15 2.07-.18.26.13.38.48.38s.91-.13 1.93-.13c.96 0 1.58.07 1.97.1-.3.43-.5.93-.53 1.45-.14 2.59 3.03 3.52 5.69 3.48 5.29-.07 6.78-3.74 5.69-5.69-1.13-2.01-3.55-1.93-5.87-1.92-4.34.02-3.52-2.67-1.75-2.57.41.02.21.14 1.62.14 2.51 0 4.92-1.71 4.85-4.52-.01-.24.05-1.06-.55-2.21 1.18.01.71 0 2.49 0l-.01 7.88c0 3.56 1.69 4.16 2.96 4.16 1.8 0 3.11-1.19 3.35-1.74 1.06 1.14 2.54 1.74 4.25 1.74 3.29 0 5.78-3.03 5.78-7 .01-6.01-3.76-7.2-5.79-7.2zM100.5 23.47c.22-.01.28.08 2.73.18 2.53.06 3.44.8 3.6 1.45.27 1.16-.55 3.64-4.18 3.4-2.29-.15-2.96-1.24-3.13-1.49-.87-1.21-.16-3.47.98-3.54zm2.08-4.72c-2.15 0-2.87-2.07-2.87-4.04 0-2.02.61-3.7 2.76-3.7 2.18 0 3.05 2.23 3.05 4.2 0 2-.91 3.54-2.94 3.54zm17.54 4.97c-3.13 0-4.36-3.88-4.36-7.04 0-2.74 1.07-5.27 3.69-5.27 3.18 0 4.33 3.4 4.33 6.72.01 4-1.41 5.59-3.66 5.59z"/><path d="M137.15 21.89v-5.25c0-2.42-.78-5.95-4.36-5.95-2.59 0-3.93 2.46-3.88 2.08v-1.83c0-.32-.16-.51-.32-.51-.62 0-1.07 1.04-3.17 1.67-.13.03-.52.04-.53.28 0 .67 2.1-.87 2.07 1.74v7.89c0 2.07-1.39 1.57-1.71 2.11-.16.28.26.34.61.34.32 0 .86-.13 2.27-.13 1.55 0 2.09.13 2.54.13.4 0 .86-.18.59-.45-.43-.42-2.35.06-2.35-2.13v-7.32c-.03-.51.91-2.48 3.16-2.48 2.17 0 3.13 2.39 3.13 3.98v5.95c-.03 2.34-.83 1.6-1.15 2.07-.18.26.13.38.48.38s.91-.13 1.93-.13c1.31 0 1.88.12 2.23.12.27 0 .75-.21.45-.45-.68-.52-2.01.3-1.99-2.11zM81.7 9.47c.34 0 1.1-1.24 1.1-1.62 0-.37-.76-1.65-1.1-1.65-.31 0-1.1 1.3-1.1 1.65.01.35.79 1.62 1.1 1.62zM63.83 16.65c-.53-.25-1.31-.7-1.7-.91-1.68-.92-2.34-1.52-2.39-2.38-.08-1.49 1.19-2.26 2.28-2.15 2.62-.04 2.97 2.89 3.24 2.89.4 0 .29-.38.29-1.25 0-.22.03-1.31-.13-1.57-.32-.48-2.17-.76-2.63-.76-.11 0-.54-.01-.62-.02-.13 0-.29.02-.29.02-1.87-.03-3.61 1.15-3.56 3.65.05 2.28 2.73 3.58 4.17 4.44 1.07.61 2.33 1.19 2.31 2.65-.02 1.66-1.31 2.77-2.7 2.68-3.25-.05-2.81-4.13-3.39-4.13-.4 0-.32 1.03-.32 1.57 0 .53-.01 1.01-.01 1.42-.07.37-.21.72-.56.74-1.28.08-.97-1.96-.97-3.05v-6.64c-.06-2.03-1.59-3.36-3.92-3.36-3.19 0-5.48 3.93-4.39 5.16.26.29 1.3-.83 1.36-.89.06-.06.08-.13.08-.13-.01-1.34 1-3.05 2.45-3.19 1.65-.16 2.48 1.07 2.48 2.74v2.16c-6.26 1.25-7.16 3.33-7.16 5.03 0 2.28 1.6 3.3 3.34 3.3 1.5 0 2.97-.71 4.09-1.86.35 1.06 1.04 1.7 2.09 1.67.36-.01.42.09 1.51-.38.38-.1.36-.09.8-.01.58.2 1.36.59 2.75.59 2.1.03 3.98-1.91 3.98-4.31-.01-1.52-.45-2.46-2.48-3.72zm-8.7 4.46c0 1.7-1.73 2.6-2.69 2.6-1.42 0-2.41-.92-2.41-2.75 0-2.82 3.39-3.34 5.1-3.79v3.94zM282.3 21.31c-.32 0-1.11 1.33-1.11 1.68 0 .35.79 1.65 1.11 1.65.34 0 1.11-1.27 1.11-1.65 0-.38-.76-1.68-1.11-1.68zM317.11 22.47V11.28c0-.63-.35-.8-.45-.8-.4 0-.63.1-.91.17-.28.1-.6.24-1.33.24-.13 0-.82-.12-.78.26.04.38 1.62.16 1.63 1.27v8.09c-.12 1.41-1.31 2.97-2.75 2.97-.33 0-2.47-.23-2.45-3.77v-8.43c0-.63-.35-.8-.45-.8-.4 0-.63.1-.91.17-.28.1-.63.23-1.36.2-.39-.02-.82-.07-.75.3.06.33 1.64 0 1.64 1.27v7.76c0 2.83 1.66 4.46 3.68 4.46 1.34 0 2.57-.29 3.35-1.86h.05v1.36c0 .13.03.5.23.5.38 0 .58-.31.86-.41.3-.07.38-.34 1.32-.43.4-.04.85-.25.85-.52-.14-.56-1.47.05-1.47-.81zM301.32 10.45c-3.37 0-5.96 3.39-5.96 7.36 0 1.79.43 3.25 1.17 4.37-.82.59-2.3 1.14-5.12 1.14-2.2 0-1.99-.76-1.99-2.63V5.76c0-2.75 2.06-1.95 2.1-2.45.03-.35-.29-.27-.63-.27-.39 0-1.1.15-2.6.15-1.29 0-2.42-.12-2.97-.12-.34 0-.65.1-.54.36.26.59 2.21.05 2.21 1.7v15.59c0 1.49.22 2.44-.46 2.82-.84.51-1.82.53-1.74.86.05.2.46.21.7.21 1.05 0 2.5-.13 3.55-.16 2-.06 3.99.13 5.98.13 1.16 0 1.45-.23 2.29-1.37.01-.02.02-.03.04-.05 1.04.97 2.42 1.49 4 1.49 3.29 0 5.78-3.03 5.78-7 0-6.01-3.77-7.2-5.81-7.2zm.27 13.27c-3.13 0-4.36-3.88-4.36-7.04 0-2.74 1.07-5.27 3.69-5.27 3.18 0 4.33 3.4 4.33 6.72.01 4-1.41 5.59-3.66 5.59zM268.51 12.88c-.77-.38-1.91-1.07-2.47-1.4-2.45-1.41-3.41-2.33-3.48-3.64-.12-2.28 2.11-3.63 3.7-3.46 2.02 0 3.69 1.23 4.38 3.85.07.28.32.92.58.92.23 0 .27-.21.25-.46l-.34-4.15c-.02-.34-.14-.43-.28-.43-.23 0-.37.34-.58.34-.32 0-1.14-1.15-3.92-1.13-.19-.01-.44.02-.44.02-2.72-.05-5.27 1.76-5.18 5.58.07 3.48 3.98 5.47 6.08 6.8 1.56.93 3.19 2.42 3.14 4.08-.08 2.55-1.68 4.21-3.7 4.07-4.74-.08-4.09-6.33-4.94-6.33-.58 0-.46 1.57-.47 2.4 0 1.98-.08 3.6.14 3.89.07.09.3.05.76.05.93 0 2.07 1.08 4.8 1.08 3.05.05 5.56-2.78 5.56-6.45-.01-2.26-.64-3.7-3.59-5.63zM321.89 9.47c.34 0 1.1-1.24 1.1-1.62 0-.37-.76-1.65-1.1-1.65-.31 0-1.1 1.3-1.1 1.65 0 .35.78 1.62 1.1 1.62zM324.61 23.76c-.54-.03-1.68-.24-1.68-1.39V10.94c0-.32-.16-.51-.32-.51-.62 0-1.01 1.12-2.72 1.69-.13.03-.38.06-.38.25 0 .67 1.54-.63 1.47 1.75v7.51c.06 1.92-.99 2.11-1.57 2.11-.87-.01-.65.1-.65.37.03.32.55.34 1.41.35.29 0 1.03-.11 1.88-.11 1.1 0 1.93.12 2.49.12.34 0 .78-.83.07-.71zM330.78 16.65c-.53-.25-1.31-.7-1.7-.91-1.68-.92-2.34-1.52-2.39-2.38-.08-1.49 1.19-2.26 2.28-2.15 2.62-.05 2.97 2.89 3.24 2.89.4 0 .29-.38.29-1.25 0-.22.03-1.31-.13-1.57-.32-.48-2.18-.76-2.63-.76-.11 0-.54-.01-.62-.01-.13 0-.29.01-.29.01-1.87-.03-3.61 1.15-3.55 3.65.05 2.28 2.73 3.57 4.17 4.44 1.07.61 2.33 1.19 2.31 2.65-.02 1.66-1.31 2.77-2.7 2.68-3.25-.05-2.81-4.13-3.39-4.13-.4 0-.32 1.03-.32 1.57-.01 1.29-.06 2.35.1 2.54.05.06.21.03.52.03.64 0 1.42.71 3.29.71 2.1.03 3.98-1.91 3.98-4.31 0-1.51-.43-2.45-2.46-3.7zM280.46 22.5c-.27.13-.88.79-2.35.79-1.1 0-1.74-.66-1.8-2.07v-9.11l3.49-.01c.23 0 .67-1.49.69-1.57.04-.19.1-.34.12-.47.04-.29-.18-.31-.38-.01-.16.15-.33.57-1.02.57h-2.9c0-2.49.03-3.14-.36-3.14-.37 0-.31.1-.65 1.21-.56 1.85-2.6 2.66-3.25 3.07-.16.08-.15.11-.16.2-.01.24.77.14 2.39.18l-.01 8.33c0 3.56 1.69 4.16 2.96 4.16 1.93 0 3.31-1.38 3.39-1.86.03-.26 0-.29-.16-.27zM196.49 21.37c-.59 0-1.47 1.67-3.78 1.67-1.63 0-4.31-1.58-4.31-6.88h7.13c.62 0 .91.03.91-.54 0-1.29-1.45-5.11-4.74-5.11-3.35 0-5.25 3.44-5.25 7.55 0 2.12 1.39 6.59 5.41 6.59 2.41 0 4.74-2.31 4.74-3.05-.01-.1-.01-.23-.11-.23zm-5.25-10.13c1.47 0 2.97 1.61 2.97 3.41 0 .48-.16.64-.54.64h-5.28c.01-1.77 1.18-4.05 2.85-4.05zM158.51 3.67c.1-.17-.26-.25-.38-.25-.43 0-1.41.11-1.86.11-.92 0-1.69-.09-2.61-.09-.07 0-.47.05-.47.19-.01.65 2.2-.11 2.2 2.68v10.92c0 3.23-1.02 6.62-5.46 6.62-3.19 0-4.92-2-4.92-6.37V5.59c0-1.97 1.54-1.54 1.57-1.98.03-.42-1.37-.17-1.48-.17-.73 0-1.25.08-2.01.08-.64 0-1.41-.1-2.03-.1-.12 0-.55-.02-.63.15-.24.58 1.97.27 1.97 1.89v11.28c0 4.21 1.18 8.34 7.4 8.23 7.37-.12 7.24-6.75 7.24-8.09V6.33c0-2.51 1.23-2.28 1.47-2.66zM187.62 11.15c.18-.21.23-.55-.59-.48-.46 0-.8.08-1.26.08-.59 0-.7-.02-1.26-.04-.7-.02-.89.05-.85.26.12.62 1.6.01 1.4 1.86-.17 1.55-.67 2.88-1.18 4.2l-1.79 4.77-2.62-7.95c-.32-.99-.46-1.52-.46-1.62 0-.99 1.2-.77 1.47-1.18.17-.27-.18-.41-.56-.41-.32 0-.69.11-1.68.13-.82.02-1.4.02-1.76-.05-.92-.17-.85.34-.53.5.32.16.47.01.94 1.4l4.04 11.42c.08.23.19.79.54.79.4 0 .4-.4.91-1.75 0 0 3.87-10.82 4.13-11.21.53-.75.92-.5 1.11-.72zM202.56 10.63c-1.1 0-1.86 1.32-2.41 2.23h-.05v-1.98c0-.31-.16-.5-.31-.5-.42 0-.74.84-2.96 1.37-.13.03-.5.1-.5.29 0 .66 1.88-.2 1.88 1.99v8.33c0 1.29-1.33 1.16-1.33 1.83 0 .19.08.28.29.28.18 0 .65-.12 2.4-.12 1.46 0 2.09.12 2.45.12.29 0 .42-.06.42-.35 0-1.01-2.32.5-2.32-2.42v-7.1c0-.41.62-1.86 1.69-1.86.94 0 1.05.72 1.55.72.31 0 .94-.94.94-1.42-.02-.59-1.2-1.41-1.74-1.41zM236.17 10.74c-.28 0-.99.04-1.64.04-.78 0-1.17-.09-1.5-.09-.5 0-.99 0-.9.33.1.37 1.79.24 1.79 2.08 0 .24 0 .54-.34 1.77l-2.15 6.85-2.99-8.42s-.14-.27-.14-.82c0-1.36 1.59-1.21 1.65-1.46.05-.2-.22-.41-.64-.41h-2.54v-.01h-1.21c-.02 0-.03.01-.05.01h-2.9c0-2.49.03-3.14-.36-3.14-.37 0-.31.1-.65 1.21-.56 1.85-2.6 2.66-3.25 3.07-.16.08-.15.11-.16.2-.01.23.78.14 2.39.18l-.01 8.33c0 3.56 1.69 4.16 2.96 4.16 1.93 0 3.31-1.37 3.39-1.86 0-.28-.04-.3-.19-.28-.27.13-.88.79-2.35.79-1.1 0-1.74-.66-1.8-2.07v-9.11s2.58-.01 3.31-.01c.04.06.08.13.1.2l3.09 8.73c.25.71.4.95.7 2.21.2.82.12 1.56.12 1.56-.3 1.31-1.11 2.06-2.33 4.48-.12.23 1.77-.02 1.87-.05.15-.05.13-.09.32-.43l1.36-4.06 3.81-11.71c.56-2.04 1.44-1.67 1.58-1.95.13-.15 0-.32-.34-.32z"/><path d="M231.24 24.54l-.07.2-.01.05zM216.01 9.47c.34 0 1.1-1.24 1.1-1.62 0-.37-.76-1.65-1.1-1.65-.31 0-1.1 1.3-1.1 1.65 0 .35.78 1.62 1.1 1.62zM218.73 23.76c-.54-.03-1.68-.24-1.68-1.39V10.94c0-.32-.16-.51-.32-.51-.62 0-1.01 1.12-2.72 1.69-.13.03-.38.06-.38.25 0 .67 1.54-.63 1.47 1.75v7.51c.06 1.92-.99 2.11-1.57 2.11-.87-.01-.65.1-.65.37.03.32.55.34 1.41.35.29 0 1.03-.11 1.88-.11 1.1 0 1.93.12 2.49.12.34 0 .78-.83.07-.71zM173.72 9.47c.34 0 1.1-1.24 1.1-1.62 0-.37-.76-1.65-1.1-1.65-.31 0-1.1 1.3-1.1 1.65 0 .35.79 1.62 1.1 1.62zM176.45 23.76c-.54-.03-1.68-.24-1.68-1.39V10.94c0-.32-.16-.51-.32-.51-.62 0-1.01 1.12-2.72 1.69-.13.03-.38.06-.38.25 0 .67 1.54-.63 1.47 1.75v7.51c.06 1.92-.99 2.11-1.57 2.11h-.18c-.56-.1-1.09-.33-1.08-1.85v-5.25c0-2.42-.78-5.95-4.36-5.95-2.59 0-3.93 2.46-3.88 2.08v-1.83c0-.32-.16-.51-.32-.51-.62 0-1.07 1.04-3.17 1.67-.13.03-.52.04-.53.28 0 .67 2.1-.87 2.07 1.74v7.89c0 2.07-1.39 1.57-1.71 2.11-.16.28.26.34.61.34.32 0 .86-.13 2.27-.13 1.55 0 2.09.13 2.54.13.4 0 .86-.18.59-.45-.43-.42-2.35.06-2.35-2.13v-7.32c-.03-.51.91-2.48 3.16-2.48 2.17 0 3.13 2.39 3.13 3.98v5.95c-.03 2.34-.83 1.6-1.15 2.07-.18.26.13.38.48.38s.91-.13 1.93-.13c1.31 0 1.88.12 2.23.12.04 0 .09-.01.13-.01.11 0 .22.01.35.01.29 0 1.03-.11 1.88-.11 1.1 0 1.93.12 2.49.12.34.01.77-.82.07-.7zM210.24 16.64c-.53-.25-1.31-.7-1.7-.91-1.68-.92-2.34-1.52-2.39-2.38-.08-1.49 1.19-2.26 2.28-2.15 2.62-.05 2.97 2.89 3.24 2.89.4 0 .29-.38.29-1.25 0-.22.03-1.31-.13-1.57-.32-.48-2.17-.76-2.63-.76-.11 0-.54-.01-.62-.02-.13 0-.29.02-.29.02-1.87-.03-3.61 1.15-3.56 3.65.05 2.28 2.73 3.57 4.17 4.44 1.07.61 2.33 1.19 2.31 2.65-.02 1.67-1.31 2.77-2.7 2.68-3.25-.05-2.81-4.13-3.39-4.13-.4 0-.32 1.03-.32 1.57 0 1.29-.06 2.35.1 2.54.05.06.21.03.52.03.64 0 1.42.71 3.29.71 2.1.03 3.98-1.91 3.98-4.31.01-1.5-.42-2.44-2.45-3.7z"/></g></svg>